<mxfile host="drawio-plugin" modified="2023-09-13T06:56:46.863Z" agent="5.0 (Windows NT 10.0; Win64; x64) AppleWebKit/537.36 (KHTML, like Gecko) Chrome/111.0.0.0 Safari/537.36" version="20.5.3" etag="YpcdRqV9EhTw_FoNiz-R" type="embed"><diagram id="wB-KcRDTRZ4dx4TwEOrF" name="Page-1"><mxGraphModel dx="956" dy="534" grid="1" gridSize="10" guides="1" tooltips="1" connect="1" arrows="1" fold="1" page="1" pageScale="1" pageWidth="850" pageHeight="1100" math="0" shadow="0"><root><mxCell id="0"/><mxCell id="1" parent="0"/><mxCell id="2" value="&lt;font style=&quot;font-size: 23px;&quot;&gt;Level 0 DFD&lt;/font&gt;" style="text;html=1;strokeColor=none;fillColor=none;align=center;verticalAlign=middle;whiteSpace=wrap;rounded=0;fontStyle=1" vertex="1" parent="1"><mxGeometry x="50" y="40" width="220" height="30" as="geometry"/></mxCell><mxCell id="4" value="Object" style="html=1;fontSize=23;" vertex="1" parent="1"><mxGeometry x="80" y="120" width="110" height="50" as="geometry"/></mxCell></root></mxGraphModel></diagram></mxfile>